<?xml version="1.0" encoding="utf-8"?>
<!-- Generator: Adobe Illustrator 24.2.1, SVG Export Plug-In . SVG Version: 6.00 Build 0)  -->
<svg version="1.1" id="Capa_1" xmlns="http://www.w3.org/2000/svg" xmlns:xlink="http://www.w3.org/1999/xlink" x="0px" y="0px"
	 viewBox="0 0 512 512" style="enable-background:new 0 0 512 512;" xml:space="preserve">
<style type="text/css">
	.st0{fill:#FFFFFF;}
</style>
<g>
	<g>
		<path class="st0" d="M380,347.7L277.3,245L157.5,125.1h-9.3l-2,4.8c-5.1,12.9-7.2,26-6.2,37.9c1.1,13.7,6.4,25.5,15,34.2
			l93.7,93.7l12.3-12.3l86.6,96.8c8.6,8.6,23.5,9.1,32.5,0C389.1,371.3,389.1,356.7,380,347.7z"/>
	</g>
</g>
<g>
	<g>
		<path class="st0" d="M205.2,274.1l-73.3,73.3c-8.9,8.9-8.9,23.6,0,32.5c8.5,8.5,23.3,9.3,32.5,0l73.3-73.3L205.2,274.1z"/>
	</g>
</g>
<g>
	<g>
		<path class="st0" d="M375.8,168.7l-41.6,41.6l-10.9-10.9l41.6-41.6L354,146.9l-41.6,41.6l-10.9-10.9l41.6-41.6l-10.9-10.9
			l-54.3,54.3c-6.6,6.6-10.6,15.4-11.2,24.8c-0.1,2.4-0.7,4.7-1.6,6.9l35.2,35.2c2.3-0.8,4.5-1.4,6.9-1.6
			c9.3-0.6,18.3-4.5,24.8-11.2l54.3-54.3L375.8,168.7z"/>
	</g>
</g>
</svg>
