<?xml version="1.0" encoding="utf-8"?>
<!-- Generator: Adobe Illustrator 24.2.1, SVG Export Plug-In . SVG Version: 6.00 Build 0)  -->
<svg version="1.1" id="Capa_1" xmlns="http://www.w3.org/2000/svg" xmlns:xlink="http://www.w3.org/1999/xlink" x="0px" y="0px"
	 viewBox="0 0 512 512" style="enable-background:new 0 0 512 512;" xml:space="preserve">
<style type="text/css">
	.st0{fill:url(#SVGID_1_);}
	.st1{fill:url(#SVGID_2_);}
</style>
<g>
	<linearGradient id="SVGID_1_" gradientUnits="userSpaceOnUse" x1="34.8735" y1="325.102" x2="477.1265" y2="325.102">
		<stop  offset="0" style="stop-color:#55BDC4"/>
		<stop  offset="0.1699" style="stop-color:#54B9C2"/>
		<stop  offset="0.3371" style="stop-color:#51ADBD"/>
		<stop  offset="0.5034" style="stop-color:#4B99B4"/>
		<stop  offset="0.6691" style="stop-color:#437EA7"/>
		<stop  offset="0.8343" style="stop-color:#395A96"/>
		<stop  offset="0.9973" style="stop-color:#2D2F82"/>
		<stop  offset="1" style="stop-color:#2D2E82"/>
	</linearGradient>
	<path class="st0" d="M464.2,397.7h-96.6c13.1-13.9,21.3-32.3,22.2-52.7c48.7-6.3,86.5-48.1,86.5-98.5c0-26.2-21.3-47.5-47.5-47.5
		h-38.9v-13c0-7.2-5.8-13-13-13H135.1c-7.2,0-13,5.8-13,13v133.6c-23.3-9.5-46.8-8.3-48.2-8.3c-6.6,0.4-11.9,5.6-12.2,12.2
		c-0.1,1.9-2.2,46.4,24.9,74.1H47.8c-7.2,0-13,5.8-13,13s5.8,13,13,13h6.5c6,30.5,33,53.6,65.2,53.6h273c32.2,0,59.2-23.1,65.2-53.6
		h6.5c7.2,0,13-5.8,13-13S471.3,397.7,464.2,397.7L464.2,397.7z M428.8,224.9c11.9,0,21.6,9.7,21.6,21.6c0,36.1-26.1,66.1-60.5,72.3
		v-93.9H428.8z M364,199v25.9H148V199H364z M148,250.8H364v90.7c0,31-25.2,56.1-56.1,56.1h-72.4c27.1-27.6,25-72.2,24.9-74.1
		c-0.4-6.6-5.6-11.9-12.2-12.2c-1.9-0.1-47-2.3-74.6,25.3c-5.1,5.1-9.2,10.8-12.5,16.7c-3.3-5.9-7.4-11.6-12.5-16.7
		c-0.2-0.2-0.3-0.3-0.5-0.5V250.8z M174.5,397.1c1.3-12.1,5.3-30.1,17.2-42c11.9-11.9,29.9-15.9,42-17.2c-1.3,12.1-5.3,30.1-17.2,42
		C204.6,391.8,186.6,395.8,174.5,397.1L174.5,397.1z M130.2,355c11.9,11.9,15.9,29.9,17.2,42c-12.1-1.3-30.1-5.3-42-17.2
		c-11.9-11.9-15.9-29.9-17.2-42C100.3,339.1,118.3,343.1,130.2,355L130.2,355z M392.5,451.2h-273c-17.9,0-33-11.6-38.5-27.6h349.9
		C425.5,439.6,410.3,451.2,392.5,451.2L392.5,451.2z M392.5,451.2"/>
	<linearGradient id="SVGID_2_" gradientUnits="userSpaceOnUse" x1="173.9413" y1="91.0189" x2="355.3342" y2="91.0189">
		<stop  offset="0" style="stop-color:#55BDC4"/>
		<stop  offset="0.1699" style="stop-color:#54B9C2"/>
		<stop  offset="0.3371" style="stop-color:#51ADBD"/>
		<stop  offset="0.5034" style="stop-color:#4B99B4"/>
		<stop  offset="0.6691" style="stop-color:#437EA7"/>
		<stop  offset="0.8343" style="stop-color:#395A96"/>
		<stop  offset="0.9973" style="stop-color:#2D2F82"/>
		<stop  offset="1" style="stop-color:#2D2E82"/>
	</linearGradient>
	<path class="st1" d="M186.9,147.2c7.2,0,13-5.8,13-13c0-2.4,1.9-4.3,4.3-4.3h112.3c21.4,0,38.9-17.4,38.9-38.9
		s-17.4-38.9-38.9-38.9h-43.2c-2.4,0-4.3-1.9-4.3-4.3c0-7.2-5.8-13-13-13c-7.2,0-13,5.8-13,13c0,16.7,13.6,30.2,30.2,30.2h43.2
		c7.1,0,13,5.8,13,13c0,7.1-5.8,13-13,13H204.2c-16.7,0-30.2,13.6-30.2,30.2C173.9,141.4,179.7,147.2,186.9,147.2L186.9,147.2z
		 M186.9,147.2"/>
</g>
</svg>
