<?xml version="1.0" encoding="utf-8"?>
<!-- Generator: Adobe Illustrator 24.2.1, SVG Export Plug-In . SVG Version: 6.00 Build 0)  -->
<svg version="1.1" id="Capa_1" xmlns="http://www.w3.org/2000/svg" xmlns:xlink="http://www.w3.org/1999/xlink" x="0px" y="0px"
	 viewBox="0 0 512 512" style="enable-background:new 0 0 512 512;" xml:space="preserve">
<style type="text/css">
	.st0{fill:#FFFFFF;}
</style>
<g>
	<g>
		<path class="st0" d="M306.2,127.3h-42.3V106h-16.6v21.3h-42.3v23.6h101.2V127.3z"/>
		<path class="st0" d="M330.9,371.4v-204H180.4v204h-37.4V388h225.4v-16.6H330.9z M246.4,188.1h18.5v16.6h-18.5L246.4,188.1z
			 M246.4,225.4h18.5v16.6h-18.5L246.4,225.4z M246.4,262.6h18.5v16.6h-18.5L246.4,262.6z M199.9,188.1h18.5v16.6h-18.5V188.1z
			 M199.9,225.4h18.5v16.6h-18.5V225.4z M199.9,262.6h18.5v16.6h-18.5V262.6z M310.3,371.4h-16.6v-53.1h-30v53.1h-16.6v-53.1h-30
			v53.1h-16.6v-69.7h109.5v69.7H310.3z M311.3,279.1h-18.5v-16.6h18.5V279.1z M311.3,241.9h-18.5v-16.6h18.5V241.9z M311.3,204.7
			h-18.5v-16.6h18.5V204.7z"/>
	</g>
</g>
</svg>
