<?xml version="1.0" encoding="utf-8"?>
<!-- Generator: Adobe Illustrator 24.2.1, SVG Export Plug-In . SVG Version: 6.00 Build 0)  -->
<svg version="1.1" id="Capa_1" xmlns="http://www.w3.org/2000/svg" xmlns:xlink="http://www.w3.org/1999/xlink" x="0px" y="0px"
	 viewBox="0 0 512 512" style="enable-background:new 0 0 512 512;" xml:space="preserve">
<style type="text/css">
	.st0{fill:#FFFFFF;}
</style>
<g>
	<circle class="st0" cx="119.9" cy="256" r="29"/>
	<path class="st0" d="M90.9,304.4h330.3v38.7H90.9V304.4z"/>
	<path class="st0" d="M372.8,227H197.3c-26.7,0-48.4,21.7-48.4,48.4v9.7h272.2v-9.7C421.1,248.7,399.4,227,372.8,227z"/>
	<path class="st0" d="M90.9,401.1h19.4v-19.4h291.6v19.4h19.4v-38.7H90.9V401.1z"/>
	<path class="st0" d="M250,168.9h54.4v-19.4h-23l19.4-38.7h-54.4v19.4h23L250,168.9z"/>
	<path class="st0" d="M172.6,207.6H227v-19.4h-23l19.4-38.7h-54.4v19.4h23L172.6,207.6z"/>
</g>
</svg>
